<svg version="1.1" viewBox="0 0 10 10" xmlns="http://www.w3.org/2000/svg" xmlns:xlink="http://www.w3.org/1999/xlink">
<defs>
<radialGradient id="a" cx="5" cy="5" r="5" gradientUnits="userSpaceOnUse">
<stop stop-color="#950000" stop-opacity=".64706" offset="0"/>
<stop stop-color="#690000" offset="1"/>
</radialGradient>
</defs>
<circle cx="5" cy="5" r="5" fill="url(#a)"/>
<path d="m5 9c-1.8914 0-3.4286-0.51429-3.4286-1.1429v-1.1429c0-0.097143 0.051429-0.19429 0.12-0.28571 0.38286 0.49143 1.7143 0.85714 3.3086 0.85714 1.5943 0 2.9257-0.36571 3.3086-0.85714 0.074286 0.091429 0.12 0.18857 0.12 0.28571v1.1429c0 0.62857-1.5371 1.1429-3.4286 1.1429zm0-2.2857c-1.8914 0-3.4286-0.51429-3.4286-1.1429v-1.1429c0-0.062857 0.022857-0.12 0.051429-0.17714 0.017143-0.034286 0.04-0.074286 0.068571-0.10857 0.38286 0.49143 1.7143 0.85714 3.3086 0.85714 1.5943 0 2.9257-0.36571 3.3086-0.85714 0.028571 0.034286 0.051429 0.074286 0.068571 0.10857 0.028571 0.057143 0.051429 0.12 0.051429 0.17714v1.1429c0 0.62857-1.5371 1.1429-3.4286 1.1429zm0-2.2857c-1.8914 0-3.4286-0.51429-3.4286-1.1429v-1.1429c0-0.62857 1.5371-1.1429 3.4286-1.1429 1.8914 0 3.4286 0.51429 3.4286 1.1429v1.1429c0 0.62857-1.5371 1.1429-3.4286 1.1429zm0-2.8571c-1.2629 0-2.2857 0.25714-2.2857 0.57143 0 0.31429 1.0229 0.57143 2.2857 0.57143 1.2629 0 2.2857-0.25714 2.2857-0.57143 0-0.31429-1.0229-0.57143-2.2857-0.57143z" fill="#fff" />
</svg>
